<?xml version="1.0" encoding="UTF-8"?><svg id="Layer_1" xmlns="http://www.w3.org/2000/svg" width="2.73mm" height="2.73mm" viewBox="0 0 7.73 7.74"><g id="Group_5385"><path id="Path_372" d="m0,7.39V.34s.01-.02.01-.03C.06.12.24,0,.43,0h6.87c.09,0,.17.02.24.07.09.07.16.16.19.26v7.05s0,.01-.01.02c-.05.19-.23.33-.43.32h-1.95s0-.02,0-.03v-2.91c0-.05.03-.06.07-.05h.94c.05-.39.1-.77.15-1.16h-1.14c0-.3,0-.6,0-.89,0-.23.18-.41.41-.41.01,0,.02,0,.03,0,.22-.01.45,0,.66,0,.03,0,.05,0,.08,0v-1.04c-.18-.01-.35-.02-.52-.03-.26-.03-.52-.01-.78.03-.32.06-.6.23-.8.49-.19.26-.29.56-.29.88-.01.3,0,.61,0,.91v.08h-1.01v1.16h.92c.07,0,.09.01.09.09v2.92H.42c-.06,0-.12-.02-.17-.04-.12-.06-.21-.17-.25-.31"/></g></svg>