<?xml version="1.0" encoding="UTF-8"?><svg id="Layer_1" xmlns="http://www.w3.org/2000/svg" width="2.73mm" height="2.73mm" viewBox="0 0 7.74 7.73"><g id="Group_5386"><path id="Path_294" d="m3.87,7.01h.95c.32,0,.64-.02.97-.05.56-.06,1.02-.47,1.14-1.02.06-.3.09-.6.08-.9,0-.71,0-1.42,0-2.12,0-.32-.01-.64-.05-.96-.06-.59-.51-1.06-1.09-1.15-.28-.05-.56-.07-.84-.07-.71,0-1.41,0-2.12,0-.32,0-.64.01-.96.05-.56.06-1.02.47-1.14,1.02-.06.3-.09.6-.08.9,0,.71,0,1.41,0,2.11,0,.32.01.65.06.97.05.52.41.96.91,1.11.31.08.64.12.96.11.4.01.81,0,1.21,0m3.86-3.14c0,.44,0,.88,0,1.33,0,.41-.06.82-.2,1.21-.23.6-.73,1.04-1.35,1.2-.39.1-.8.14-1.2.12h-2.44c-.41.01-.82-.05-1.21-.19-.59-.23-1.04-.73-1.2-1.34C.03,5.81-.01,5.41,0,5.02v-2.48c0-.41.06-.82.2-1.21C.43.74.94.29,1.56.13,1.94.03,2.34-.01,2.74,0h2.45c.41-.01.83.06,1.21.2.59.23,1.04.73,1.2,1.35.1.41.14.83.12,1.25v1.07h0"/><path id="Path_295" d="m5.14,3.87c0-.7-.57-1.27-1.27-1.28-.7,0-1.27.57-1.28,1.27,0,.7.57,1.27,1.27,1.28,0,0,0,0,0,0,.7,0,1.27-.57,1.27-1.27m-1.27,1.99c-1.1,0-2-.9-2-2s.9-2,2-2,2,.9,2,2c0,0,0,0,0,0,0,1.1-.9,1.99-2,1.99"/><path id="Path_296" d="m6.4,1.81c0,.26-.21.47-.47.47-.26,0-.48-.22-.48-.48,0-.26.22-.47.48-.47,0,0,0,0,0,0,.25,0,.46.2.46.46,0,0,0,.01,0,.02"/></g></svg>