<?xml version="1.0" encoding="utf-8"?>
<!-- Generator: Adobe Illustrator 27.3.0, SVG Export Plug-In . SVG Version: 6.00 Build 0)  -->
<svg version="1.1" id="Layer_1" xmlns="http://www.w3.org/2000/svg" xmlns:xlink="http://www.w3.org/1999/xlink" x="0px" y="0px"
	 viewBox="0 0 16 19.5" style="enable-background:new 0 0 16 19.5;" xml:space="preserve">
<style type="text/css">
	.st0{fill:#FFFFFF;}
	.st1{opacity:0.5;fill:#FFFFFF;}
	.st2{opacity:0.5;fill:#2D2D2D;}
	.st3{opacity:0.6;enable-background:new    ;}
	.st4{opacity:0.5;fill:#E5E5E5;enable-background:new    ;}
	.st5{fill:#2C2C2C;}
	.st6{fill:#397234;}
	.st7{fill:#E5E5E5;}
	.st8{clip-path:url(#SVGID_00000170244595142608039240000001070875229542039224_);}
	.st9{fill:#2D2D2D;}
	.st10{opacity:0.5;}
	.st11{fill:#A5A5A5;}
	.st12{enable-background:new    ;}
	.st13{clip-path:url(#SVGID_00000172403448944793012530000008380075896708539292_);}
</style>
<g id="Group_6753" transform="translate(-112.908 -605.767)">
	<path id="Path_6052_00000059989663995472400970000012345601684333334920_" class="st0" d="M124.7,605.8c-1.3-0.1-2.6,0.4-3.5,1.4
		c-1.7,1.7-0.8,2.9-0.8,2.9s1.2,0.9,2.9-0.8C124.3,608.4,124.8,607.1,124.7,605.8"/>
	<path id="Path_6053_00000054254115021671719260000006948210777013008019_" class="st0" d="M128.5,614.8c-1.3-3.2-4.5-3.6-7.6-2.7
		c-3.1-0.9-6.3-0.5-7.6,2.7c-1.3,3.2,0.3,8.1,3.9,10c0.7,0.4,1.6,0.5,2.4,0.4c0.8-0.3,1.7-0.3,2.6,0c0.8,0.2,1.7,0,2.4-0.4
		C128.1,622.9,129.8,618,128.5,614.8"/>
</g>
</svg>
