<?xml version="1.0" encoding="utf-8"?>
<!-- Generator: Adobe Illustrator 27.3.0, SVG Export Plug-In . SVG Version: 6.00 Build 0)  -->
<svg version="1.1" id="Layer_1" xmlns="http://www.w3.org/2000/svg" xmlns:xlink="http://www.w3.org/1999/xlink" x="0px" y="0px"
	 viewBox="0 0 57.6 46.6" style="enable-background:new 0 0 57.6 46.6;" xml:space="preserve">
<style type="text/css">
	.st0{fill:#397234;}
	.st1{fill:#FFFFFF;}
</style>
<g id="Group_7007_00000032620034230594250800000017995249900368824963_" transform="translate(0 0)">
	<g>
		<g id="Group_7007-2_00000004531010022460909360000001083729099962989190_" transform="translate(0 0)">
			<path id="Path_6386_00000032647452423067681680000004726876615986565043_" class="st0" d="M27.4,46.6v-43
				C16.4-1.8,5.3,0.2,1.1,1.3C0.4,1.5,0,2.1,0,2.7v40.1c0,0.8,0.6,1.5,1.5,1.5c0.1,0,0.2,0,0.3,0c3.1-0.7,6.3-1.1,9.5-1.1
				C16.9,43.2,22.4,44.3,27.4,46.6"/>
			<path id="Path_6387_00000019636804499720554920000015546681776178457502_" class="st0" d="M30.2,46.6v-43
				c11-5.5,22.1-3.5,26.3-2.4c0.6,0.2,1.1,0.8,1.1,1.4v40.1c0,0.8-0.6,1.5-1.5,1.5c-0.1,0-0.2,0-0.3,0c-3.1-0.7-6.3-1.1-9.5-1.1
				C40.7,43.2,35.2,44.3,30.2,46.6"/>
		</g>
	</g>
</g>
</svg>
