<?xml version="1.0" encoding="utf-8"?>
<!-- Generator: Adobe Illustrator 27.3.0, SVG Export Plug-In . SVG Version: 6.00 Build 0)  -->
<svg version="1.1" id="Layer_1" xmlns="http://www.w3.org/2000/svg" xmlns:xlink="http://www.w3.org/1999/xlink" x="0px" y="0px"
	 viewBox="0 0 18.9 18.9" style="enable-background:new 0 0 18.9 18.9;" xml:space="preserve">
<style type="text/css">
	.st0{fill:#FFFFFF;}
	.st1{opacity:0.5;fill:#FFFFFF;}
	.st2{opacity:0.5;fill:#2D2D2D;}
	.st3{opacity:0.6;enable-background:new    ;}
	.st4{opacity:0.5;fill:#E5E5E5;enable-background:new    ;}
	.st5{fill:#2C2C2C;}
	.st6{fill:#397234;}
	.st7{fill:#E5E5E5;}
	.st8{clip-path:url(#SVGID_00000110463186005084535200000015310472805038172593_);}
	.st9{fill:#2D2D2D;}
	.st10{opacity:0.5;}
	.st11{fill:#A5A5A5;}
	.st12{enable-background:new    ;}
	.st13{clip-path:url(#SVGID_00000011752133073274529540000013655686625223442304_);}
</style>
<g>
	<defs>
		<rect id="SVGID_1_" x="0" y="-0.5" width="18.9" height="18.9"/>
	</defs>
	<clipPath id="SVGID_00000128479775050864547830000004918565713960866728_">
		<use xlink:href="#SVGID_1_"  style="overflow:visible;"/>
	</clipPath>
</g>
<g id="Group_5514">
	<path id="Path_5337" class="st0" d="M17.8,7.6c-1-0.4-1.1-0.4-1.2-0.7l0,0c-0.1-0.3-0.2-0.5-0.3-0.8c-0.1-0.2,0-0.4,0.4-1.3
		c0.4-1,0.5-1.1-0.5-2.1s-1-0.9-2.1-0.5S13,2.7,12.7,2.6l0,0c-0.2-0.1-0.5-0.2-0.7-0.3c-0.1,0-0.2-0.1-0.2-0.2
		c-0.2-0.3-0.4-0.7-0.5-1C10.8,0.1,10.8,0,9.4,0S8,0.1,7.6,1.1S7.2,2.2,6.9,2.3l0,0C6.6,2.4,6.3,2.5,6.1,2.7c-0.2,0.1-0.4,0-1.3-0.4
		c-1-0.4-1.1-0.5-2.1,0.5s-0.9,1-0.5,2.1s0.4,1.1,0.3,1.4l0,0C2.4,6.5,2.3,6.8,2.3,7C2.1,7.2,2,7.3,1.1,7.7C0.1,8.1,0,8.1,0,9.5
		s0.1,1.4,1.1,1.8s1.1,0.4,1.2,0.7l0,0c0.1,0.3,0.2,0.5,0.3,0.8c0.1,0.2,0,0.4-0.4,1.3c-0.4,1-0.5,1.1,0.5,2.1s1,0.9,2.1,0.5
		s1.1-0.4,1.4-0.3l0,0c0.3,0.1,0.5,0.2,0.8,0.3c0.2,0.1,0.3,0.3,0.6,1.2c0.4,1,0.4,1.1,1.8,1.1s1.4-0.1,1.8-1.1s0.4-1.1,0.7-1.2l0,0
		c0.3-0.1,0.5-0.2,0.8-0.3c0.2-0.1,0.4,0,1.3,0.4c1,0.4,1.1,0.5,2.1-0.5s0.9-1,0.5-2.1s-0.4-1.1-0.3-1.4l0,0
		c0.1-0.3,0.2-0.5,0.3-0.8c0.1-0.2,0.3-0.3,1.2-0.6c1-0.4,1.1-0.4,1.1-1.8S18.8,8,17.8,7.6 M10.1,13.2c-2.1,0.4-4.1-1-4.5-3.1
		s1-4.1,3.1-4.5s4.1,1,4.5,3.1c0.1,0.4,0.1,0.9,0,1.3C13,11.7,11.7,13,10.1,13.2"/>
</g>
</svg>
