<?xml version="1.0" encoding="utf-8"?>
<!-- Generator: Adobe Illustrator 27.3.0, SVG Export Plug-In . SVG Version: 6.00 Build 0)  -->
<svg version="1.1" id="Layer_1" xmlns="http://www.w3.org/2000/svg" xmlns:xlink="http://www.w3.org/1999/xlink" x="0px" y="0px"
	 viewBox="0 0 16.9 19.5" style="enable-background:new 0 0 16.9 19.5;" xml:space="preserve">
<style type="text/css">
	.st0{fill:#FFFFFF;}
	.st1{opacity:0.5;fill:#FFFFFF;}
	.st2{opacity:0.5;fill:#2D2D2D;}
	.st3{opacity:0.6;enable-background:new    ;}
	.st4{opacity:0.5;fill:#E5E5E5;enable-background:new    ;}
	.st5{fill:#2C2C2C;}
	.st6{fill:#397234;}
	.st7{fill:#E5E5E5;}
	.st8{clip-path:url(#SVGID_00000088100630208296088370000014983227532611504317_);}
	.st9{fill:#2D2D2D;}
	.st10{opacity:0.5;}
	.st11{fill:#A5A5A5;}
	.st12{enable-background:new    ;}
	.st13{clip-path:url(#SVGID_00000170248153196744434080000007288772899500200631_);}
</style>
<g id="Group_6751" transform="translate(-52.299 -639.538)">
	<path id="Path_6046_00000172422195422689566090000003543995101309453493_" class="st0" d="M64.5,647.3c-1.2-0.6-2.5-0.9-3.8-0.9
		c-1.3,0-2.6,0.3-3.8,0.9c-0.7,0.4-1.3,0.9-1.9,1.4c-1.1,1.2-1.8,2.8-1.8,4.4c0,0.1,0,0.2,0,0.3c0,0.1,0,0.2,0.1,0.3
		c0.2,0.2,0.2,0.4,0.1,0.6c0,0.1-0.1,0.2,0,0.3c0.3,1.1,0.8,2.1,1.6,2.9c1.1,1.3,3.4,1.6,5.6,1.6h0.2c2.2,0,4.5-0.3,5.6-1.6
		c0.8-0.8,1.3-1.8,1.6-2.9c0-0.1,0-0.2,0-0.3c-0.1-0.2-0.1-0.5,0.1-0.6c0.1-0.1,0.1-0.2,0.1-0.3c0-0.1,0-0.2,0-0.3
		c0-1.6-0.7-3.2-1.8-4.4C65.8,648.2,65.2,647.7,64.5,647.3"/>
	<path id="Path_6047_00000019676723130237807940000014793827835702342280_" class="st0" d="M65.6,639.5h-9.7
		c-1.9-0.1-3.5,1.4-3.6,3.3c0,0.4,0.1,0.8,0.2,1.2c0.5,1.1,1,2.2,1.6,3.2c0.6-0.5,1.3-1,2-1.3c-0.5-0.9-1-1.8-1.4-2.7
		c-0.2-0.5,0-1.1,0.6-1.4c0,0,0.1,0,0.1,0c0.1,0,0.3-0.1,0.4-0.1h9.7c0.1,0,0.3,0,0.4,0.1c0,0,0.1,0,0.1,0c0.5,0.2,0.8,0.8,0.6,1.4
		c-0.4,0.9-0.9,1.8-1.4,2.7c0.7,0.4,1.4,0.8,2,1.3c0.6-1,1.2-2.1,1.6-3.2c0.2-0.4,0.2-0.8,0.2-1.2C69.1,640.9,67.5,639.5,65.6,639.5
		"/>
</g>
</svg>
