<svg xmlns="http://www.w3.org/2000/svg" xmlns:xlink="http://www.w3.org/1999/xlink" width="231" height="53.441" viewBox="0 0 231 53.441">
  <defs>
    <clipPath id="clip-path">
      <path id="Path_5203" data-name="Path 5203" d="M0,24.336H231v-52.6H0Z" transform="translate(0 28.264)"/>
    </clipPath>
  </defs>
  <g id="Group_5797" data-name="Group 5797" transform="translate(0 1)">
    <g id="Group_5460" data-name="Group 5460" transform="translate(0 -0.159)" clip-path="url(#clip-path)">
      <g id="Group_5458" data-name="Group 5458" transform="translate(10.166 8.498)">
        <path id="Path_5201" data-name="Path 5201" d="M4.354.945H5.376a1.069,1.069,0,0,1,.484.108c.108.054.162.214.162.43V4.656H2.365V.138H.373V4.656H-3.014v-2.9c0-.27.054-.378.16-.432a1.017,1.017,0,0,1,.432-.106h.806L-1.778-.776H-5.057V8.153h1.666l.054-1.13H5.806c.378,0,.484.214.538.538l.054.644H8.011V-1.1h-3.5Z" transform="translate(5.057 1.098)"/>
      </g>
      <g id="Group_5459" data-name="Group 5459" transform="translate(10.111 33.883)">
        <path id="Path_5202" data-name="Path 5202" d="M5.276,1.1l-.054,1.56H-4.136V1.311c0-.27.052-.378.16-.432a1.015,1.015,0,0,1,.43-.106h.916l-.162-2.045H-6.127V8.947h3.335l.162-1.989h-.916c-.376,0-.59-.162-.59-.43V5.022H4.738c.376,0,.484.214.538.538l.054,1.076H6.943V1.1Z" transform="translate(6.127 1.272)"/>
      </g>
    </g>
    <g id="Group_5461" data-name="Group 5461" transform="translate(0 -1)">
      <path id="Path_5204" data-name="Path 5204" d="M0,0V52.6H231V0ZM33.724,3.873H227.129v44.91H33.724Zm-29.8,0H29.8V48.729H3.927Z"/>
    </g>
    <g id="Group_5462" data-name="Group 5462" transform="translate(43.833 12.158)">
      <path id="Path_5205" data-name="Path 5205" d="M8.262,12.566V6.65H-2.225V-14.594h-7.37v27.16Z" transform="translate(9.595 14.594)"/>
    </g>
    <g id="Group_5463" data-name="Group 5463" transform="translate(63.733 12.156)">
      <path id="Path_5206" data-name="Path 5206" d="M7.465,9.8H-1.356V4.7H6.819V-1.22H-1.356V-5.471H7.465v-5.916H-8.67V15.775H7.465Z" transform="translate(8.67 11.387)"/>
    </g>
    <g id="Group_5465" data-name="Group 5465" transform="translate(0 -0.159)" clip-path="url(#clip-path)">
      <g id="Group_5464" data-name="Group 5464" transform="translate(81.214 11.94)">
        <path id="Path_5207" data-name="Path 5207" d="M6.121,12.915A32.494,32.494,0,0,0,16.608,11.3V-3.328H4.883V2.32H9.724V6.568a13.317,13.317,0,0,1-3.011.322A5.481,5.481,0,0,1,2.14,4.9,9.113,9.113,0,0,1,.527-.907,8.986,8.986,0,0,1,2.3-6.877a6.152,6.152,0,0,1,4.948-2.1A14.391,14.391,0,0,1,13.7-7.523l2.313-5.754a21.742,21.742,0,0,0-3.981-1.238A23.122,23.122,0,0,0,7.2-15C2.678-15-.817-13.761-3.344-11.342S-7.109-5.48-7.109-1.123c0,4.519,1.128,7.96,3.441,10.381s5.648,3.657,9.789,3.657" transform="translate(7.109 14.999)"/>
      </g>
    </g>
    <g id="Group_5466" data-name="Group 5466" transform="translate(108.213 12.156)">
      <path id="Path_5209" data-name="Path 5209" d="M7.465,9.8H-1.3V4.7H6.819V-1.22H-1.3V-5.471H7.465v-5.916H-8.67V15.775H7.465Z" transform="translate(8.67 11.387)"/>
    </g>
    <g id="Group_5475" data-name="Group 5475" transform="translate(0 -0.159)" clip-path="url(#clip-path)">
      <g id="Group_5467" data-name="Group 5467" transform="translate(126.822 12.316)">
        <path id="Path_5210" data-name="Path 5210" d="M3.011,6.917c0-1.56-.108-3.873-.376-6.884H2.8l9.951,19.092h9.627V-8.034H15.811V4.228c0,1.667.108,3.873.27,6.616h-.108L6.076-8.034H-3.5v27.16H3.011Z" transform="translate(3.497 8.034)"/>
      </g>
      <g id="Group_5468" data-name="Group 5468" transform="translate(156.295 12.317)">
        <path id="Path_5211" data-name="Path 5211" d="M8.933,10.874C11.406,8.4,12.7,4.9,12.7.387q0-6.295-3.549-9.681C6.782-11.5,3.393-12.629-.964-12.629h-9.411v27.16h8.767c4.517,0,8.068-1.184,10.541-3.657M-3.061-6.713H-.91A5.328,5.328,0,0,1,3.555-4.885C4.523-3.7,5.006-1.818,5.006.655c0,2.689-.538,4.625-1.56,5.916A5.91,5.91,0,0,1-1.448,8.507H-3.061Z" transform="translate(10.375 12.629)"/>
      </g>
      <g id="Group_5469" data-name="Group 5469" transform="translate(180.714 11.94)">
        <path id="Path_5212" data-name="Path 5212" d="M3.857,12.915A14.1,14.1,0,0,0,9.5,11.839a8.1,8.1,0,0,0,3.711-3.065,7.909,7.909,0,0,0,1.29-4.465A7.425,7.425,0,0,0,13.162-.262,12.841,12.841,0,0,0,8.267-3.65,31.4,31.4,0,0,1,3.8-5.964,1.847,1.847,0,0,1,3-7.415a1.509,1.509,0,0,1,.644-1.238,3.558,3.558,0,0,1,2.1-.484A16.742,16.742,0,0,1,12.3-7.415l2.259-5.648A21.208,21.208,0,0,0,5.954-15a12.163,12.163,0,0,0-7.53,2.1A6.939,6.939,0,0,0-4.319-7.039a8.821,8.821,0,0,0,.646,3.5A6.98,6.98,0,0,0-1.684-.961,16.788,16.788,0,0,0,2.3,1.4c1.935.862,3.173,1.453,3.6,1.721a3.111,3.111,0,0,1,.968.862,1.5,1.5,0,0,1,.324.968,1.785,1.785,0,0,1-.754,1.452A3.985,3.985,0,0,1,4.018,7,17.483,17.483,0,0,1-.124,6.407,21.319,21.319,0,0,1-4.479,4.739V11.3A17.06,17.06,0,0,0-.662,12.645a33.791,33.791,0,0,0,4.519.27" transform="translate(4.479 14.999)"/>
      </g>
      <g id="Group_5470" data-name="Group 5470" transform="translate(200.236 32.862)">
        <path id="Path_5213" data-name="Path 5213" d="M.5,2.861A4.1,4.1,0,0,0,3.4,3.775a4.159,4.159,0,0,0,2.8-.914A3.365,3.365,0,0,0,7.22.226a3.45,3.45,0,0,0-.968-2.635A3.874,3.874,0,0,0,3.4-3.323a4.422,4.422,0,0,0-2.959.914A3.365,3.365,0,0,0-.578.226,3.6,3.6,0,0,0,.5,2.861" transform="translate(0.578 3.323)"/>
      </g>
      <g id="Group_5471" data-name="Group 5471" transform="translate(16.619 26.999)">
        <path id="Path_5214" data-name="Path 5214" d="M2.265,0,2.211,1.56H-2.63V3.927H1.727c.376,0,.484.214.538.538L2.318,5.54H3.932V0Z" transform="translate(2.63)"/>
      </g>
      <g id="Group_5472" data-name="Group 5472" transform="translate(10.057 26.999)">
        <path id="Path_5215" data-name="Path 5215" d="M.771,0,.825,1.56H5.666V3.927H1.309c-.376,0-.484.214-.538.538L.718,5.54H-.9V0Z" transform="translate(0.896)"/>
      </g>
      <g id="Group_5473" data-name="Group 5473" transform="translate(16.619 19.415)">
        <path id="Path_5216" data-name="Path 5216" d="M2.265,2.563,2.211,1H-2.63V-1.363H1.727c.376,0,.484-.214.538-.538l.054-1.076H3.932v5.54Z" transform="translate(2.63 2.977)"/>
      </g>
      <g id="Group_5474" data-name="Group 5474" transform="translate(10.057 19.415)">
        <path id="Path_5217" data-name="Path 5217" d="M.771,2.563.825,1H5.666V-1.363H1.309c-.376,0-.484-.214-.538-.538L.718-2.977H-.9v5.54Z" transform="translate(0.896 2.977)"/>
      </g>
    </g>
    <path id="Path_5219" data-name="Path 5219" d="M8.352-16.5h1.989V-8.65H8.352Z" transform="translate(7.191 38.232)"/>
  </g>
</svg>
