<?xml version="1.0" encoding="utf-8"?>
<!-- Generator: Adobe Illustrator 27.3.0, SVG Export Plug-In . SVG Version: 6.00 Build 0)  -->
<svg version="1.1" id="Layer_1" xmlns="http://www.w3.org/2000/svg" xmlns:xlink="http://www.w3.org/1999/xlink" x="0px" y="0px"
	 viewBox="0 0 7.7 7.7" style="enable-background:new 0 0 7.7 7.7;" xml:space="preserve">
<style type="text/css">
	.st0{fill:#FFFFFF;}
	.st1{opacity:0.5;fill:#FFFFFF;}
	.st2{opacity:0.5;fill:#2D2D2D;}
	.st3{opacity:0.6;enable-background:new    ;}
	.st4{opacity:0.5;fill:#E5E5E5;enable-background:new    ;}
	.st5{fill:#2C2C2C;}
	.st6{fill:#397234;}
	.st7{fill:#E5E5E5;}
	.st8{clip-path:url(#SVGID_00000176752857048541406700000013414968246322218916_);}
	.st9{fill:#2D2D2D;}
	.st10{opacity:0.5;}
	.st11{fill:#A5A5A5;}
	.st12{enable-background:new    ;}
	.st13{clip-path:url(#SVGID_00000083776181192899408230000017152665394238318221_);}
</style>
<g id="Group_6297" transform="translate(264.904 13755.945)">
	<path id="Path_372" class="st0" d="M-264.9-13748.6v-7.1c0,0,0,0,0,0c0.1-0.2,0.2-0.3,0.4-0.3h6.9c0.1,0,0.2,0,0.2,0.1
		c0.1,0.1,0.2,0.2,0.2,0.3v7.1c0,0,0,0,0,0c0,0.2-0.2,0.3-0.4,0.3h-2c0,0,0,0,0,0v-2.9c0-0.1,0-0.1,0.1-0.1h0.9
		c0-0.4,0.1-0.8,0.1-1.2h-1.1c0-0.3,0-0.6,0-0.9c0-0.2,0.2-0.4,0.4-0.4c0,0,0,0,0,0c0.2,0,0.4,0,0.7,0c0,0,0.1,0,0.1,0v-1
		c-0.2,0-0.3,0-0.5,0c-0.3,0-0.5,0-0.8,0c-0.3,0.1-0.6,0.2-0.8,0.5c-0.2,0.3-0.3,0.6-0.3,0.9c0,0.3,0,0.6,0,0.9v0.1h-1v1.2h0.1
		c0.3,0,0.6,0,0.8,0c0.1,0,0.1,0,0.1,0.1c0,0.9,0,1.9,0,2.8v0.1h-0.1c-1.2,0-2.4,0-3.6,0c-0.1,0-0.1,0-0.2,0
		C-264.8-13748.3-264.9-13748.4-264.9-13748.6"/>
</g>
</svg>
