<?xml version="1.0" encoding="utf-8"?>
<!-- Generator: Adobe Illustrator 27.3.0, SVG Export Plug-In . SVG Version: 6.00 Build 0)  -->
<svg version="1.1" id="Layer_1" xmlns="http://www.w3.org/2000/svg" xmlns:xlink="http://www.w3.org/1999/xlink" x="0px" y="0px"
	 viewBox="0 0 51 51" style="enable-background:new 0 0 51 51;" xml:space="preserve">
<style type="text/css">
	.st0{fill:#FFFFFF;}
	.st1{opacity:0.5;fill:#FFFFFF;}
	.st2{opacity:0.5;fill:#2D2D2D;}
	.st3{opacity:0.6;enable-background:new    ;}
	.st4{opacity:0.5;fill:#E5E5E5;enable-background:new    ;}
	.st5{fill:#2C2C2C;}
	.st6{fill:#397234;}
	.st7{fill:#E5E5E5;}
	.st8{clip-path:url(#SVGID_00000108990525427981984240000017916791293283631794_);}
	.st9{fill:#2D2D2D;}
	.st10{opacity:0.5;}
	.st11{fill:#A5A5A5;}
	.st12{enable-background:new    ;}
	.st13{clip-path:url(#SVGID_00000044883729532008097830000007788899246430571955_);}
</style>
<path id="Subtraction_8" class="st0" d="M25.5,51c-3.4,0-6.8-0.7-9.9-2C9.5,46.4,4.6,41.5,2,35.4c-1.3-3.1-2-6.5-2-9.9h3.7
	c0,12,9.8,21.8,21.8,21.8c5.8,0,11.3-2.3,15.4-6.4c8.5-8.5,8.5-22.3,0-30.8C36.8,6,31.3,3.7,25.5,3.7V0c5.1,0,10,1.5,14.3,4.4
	c1.4,0.9,2.6,2,3.8,3.1c2.3,2.3,4.2,5.1,5.5,8.1c2.7,6.3,2.7,13.5,0,19.9c-1.9,4.6-5.1,8.5-9.2,11.2C35.5,49.5,30.6,51,25.5,51z"/>
</svg>
