<?xml version="1.0" encoding="utf-8"?>
<!-- Generator: Adobe Illustrator 27.3.0, SVG Export Plug-In . SVG Version: 6.00 Build 0)  -->
<svg version="1.1" id="Layer_1" xmlns="http://www.w3.org/2000/svg" xmlns:xlink="http://www.w3.org/1999/xlink" x="0px" y="0px"
	 viewBox="0 0 24.3 19.1" style="enable-background:new 0 0 24.3 19.1;" xml:space="preserve">
<style type="text/css">
	.st0{fill:#FFFFFF;}
	.st1{opacity:0.5;fill:#FFFFFF;}
	.st2{opacity:0.5;fill:#2D2D2D;}
	.st3{opacity:0.6;enable-background:new    ;}
	.st4{opacity:0.5;fill:#E5E5E5;enable-background:new    ;}
	.st5{fill:#2C2C2C;}
	.st6{fill:#397234;}
	.st7{fill:#E5E5E5;}
	.st8{clip-path:url(#SVGID_00000106867278088151539820000006455643288615457160_);}
	.st9{fill:#2D2D2D;}
	.st10{opacity:0.5;}
	.st11{fill:#A5A5A5;}
	.st12{enable-background:new    ;}
	.st13{clip-path:url(#SVGID_00000137822995876769121800000007093352212120325798_);}
</style>
<g id="Group_6750" transform="translate(-171.914 -560.825)">
	<path id="Path_6048_00000080179750310227855160000007086548040417542318_" class="st0" d="M172.1,566.2l12,4.6l12-4.6l0,0
		c0.1-0.1,0.2-0.3,0.1-0.4c0-0.1-0.1-0.1-0.1-0.1l0,0l-11.7-4.8c-0.1-0.1-0.3-0.1-0.5,0l-11.7,4.8c-0.2,0.1-0.2,0.3-0.2,0.4
		C172,566.1,172,566.2,172.1,566.2"/>
	<path id="Path_6049_00000005951931164284085960000003085335687446582446_" class="st0" d="M190.5,569.9l-6.4,2.7l-6.4-2.7
		c-0.3,0.5-1.3,2.5-1.3,7.1c0,0,0,0.1,0,0.1l0,0c2.7,0.4,5.2,1.4,7.5,2.8c0.1,0.1,0.2,0.1,0.3,0c2.3-1.5,4.8-2.5,7.5-2.8
		c0,0,0,0,0-0.1l0,0C191.7,572.4,190.8,570.4,190.5,569.9"/>
</g>
</svg>
