<?xml version="1.0" encoding="utf-8"?>
<!-- Generator: Adobe Illustrator 27.5.0, SVG Export Plug-In . SVG Version: 6.00 Build 0)  -->
<!DOCTYPE svg PUBLIC "-//W3C//DTD SVG 1.1//EN" "http://www.w3.org/Graphics/SVG/1.1/DTD/svg11.dtd" [
	<!ENTITY ns_extend "http://ns.adobe.com/Extensibility/1.0/">
	<!ENTITY ns_ai "http://ns.adobe.com/AdobeIllustrator/10.0/">
	<!ENTITY ns_graphs "http://ns.adobe.com/Graphs/1.0/">
	<!ENTITY ns_vars "http://ns.adobe.com/Variables/1.0/">
	<!ENTITY ns_imrep "http://ns.adobe.com/ImageReplacement/1.0/">
	<!ENTITY ns_sfw "http://ns.adobe.com/SaveForWeb/1.0/">
	<!ENTITY ns_custom "http://ns.adobe.com/GenericCustomNamespace/1.0/">
	<!ENTITY ns_adobe_xpath "http://ns.adobe.com/XPath/1.0/">
]>
<svg version="1.1" id="Layer_1" xmlns:x="&ns_extend;" xmlns:i="&ns_ai;" xmlns:graph="&ns_graphs;"
	 xmlns="http://www.w3.org/2000/svg" xmlns:xlink="http://www.w3.org/1999/xlink" x="0px" y="0px" width="38.4px" height="44.3px"
	 viewBox="0 0 38.4 44.3" style="enable-background:new 0 0 38.4 44.3;" xml:space="preserve">
<style type="text/css">
	.st0{fill:#397234;}
</style>
<metadata>
	<sfw  xmlns="&ns_sfw;">
		<slices></slices>
		<sliceSourceBounds  bottomLeftOrigin="true" height="44.3" width="38.4" x="0" y="0"></sliceSourceBounds>
	</sfw>
</metadata>
<g>
	<path id="Path_6046" class="st0" d="M27.7,17.6c-2.6-1.4-5.6-2.1-8.5-2c-3,0-5.9,0.6-8.5,2c-1.6,0.9-3,2-4.3,3.2
		c-2.6,2.7-4.1,6.3-4.1,10c0,0.2,0,0.5,0,0.7s0.1,0.5,0.3,0.7c0.4,0.4,0.5,0.9,0.2,1.4c-0.1,0.2-0.1,0.5-0.1,0.7
		c0.6,2.4,1.9,4.7,3.6,6.5c2.4,2.9,7.7,3.5,12.6,3.5h0.5c4.9,0,10.2-0.7,12.6-3.5c1.7-1.8,3-4.1,3.6-6.5c0.1-0.2,0-0.5-0.1-0.7
		c-0.3-0.5-0.2-1,0.2-1.4c0.2-0.2,0.3-0.4,0.3-0.7c0-0.2,0-0.5,0-0.7c0-3.7-1.5-7.3-4.1-10C30.7,19.6,29.3,18.5,27.7,17.6"/>
	<path id="Path_6047" class="st0" d="M30.1,0H8.2C3.9-0.2,0.2,3.2,0,7.5c0,0.9,0.2,1.9,0.6,2.7c1.1,2.5,2.3,5,3.7,7.3
		c1.4-1.2,2.9-2.2,4.5-3c-1.1-2-2.2-4-3.1-6.1C5.2,7.2,5.8,5.8,7.1,5.3c0.1,0,0.1,0,0.2-0.1C7.6,5.1,7.9,5,8.3,5h21.9
		c0.3,0,0.7,0.1,1,0.2c0.1,0,0.1,0,0.2,0.1c1.2,0.5,1.8,1.9,1.3,3.1c-0.9,2.1-1.9,4.1-3.1,6.1c1.6,0.8,3.2,1.8,4.5,3
		c1.4-2.4,2.6-4.8,3.7-7.3c0.4-0.9,0.6-1.8,0.6-2.7C38.2,3.2,34.5-0.2,30.1,0"/>
</g>
</svg>
