<?xml version="1.0" encoding="utf-8"?>
<!-- Generator: Adobe Illustrator 27.3.0, SVG Export Plug-In . SVG Version: 6.00 Build 0)  -->
<svg version="1.1" id="Layer_1" xmlns="http://www.w3.org/2000/svg" xmlns:xlink="http://www.w3.org/1999/xlink" x="0px" y="0px"
	 viewBox="0 0 380.3 86.6" style="enable-background:new 0 0 380.3 86.6;" xml:space="preserve">
<style type="text/css">
	.st0{fill:#FFFFFF;}
	.st1{opacity:0.5;fill:#FFFFFF;}
	.st2{opacity:0.5;fill:#2D2D2D;}
	.st3{opacity:0.6;enable-background:new    ;}
	.st4{opacity:0.5;fill:#E5E5E5;enable-background:new    ;}
	.st5{fill:#2C2C2C;}
	.st6{fill:#397234;}
	.st7{fill:#E5E5E5;}
	.st8{clip-path:url(#SVGID_00000166650099850135280480000005843581333507981977_);}
	.st9{fill:#2D2D2D;}
	.st10{opacity:0.5;}
	.st11{fill:#A5A5A5;}
	.st12{enable-background:new    ;}
	.st13{clip-path:url(#SVGID_00000045582174399859952920000015302293176261115573_);}
</style>
<g>
	<path id="Path_5204" class="st6" d="M0,0v86.6h380.3V0H0z M55.5,6.4h318.4v73.9H55.5V6.4z M6.5,6.4h42.6v73.8H6.5V6.4z"/>
	<g>
		<path id="Path_5205" class="st6" d="M101.6,65.6v-9.7H84.3v-35H72.2v44.7H101.6z"/>
		<path id="Path_5206" class="st6" d="M131.5,55.7H117v-8.4h13.5v-9.7H117v-7h14.5v-9.7h-26.6v44.7h26.6V55.7z"/>
		<path id="Path_5209" class="st6" d="M204.7,55.7h-14.4v-8.4h13.4v-9.7h-13.4v-7h14.4v-9.7h-26.6v44.7h26.6V55.7z"/>
		<path id="Path_5207" class="st6" d="M155.5,66.2c5.9,0.1,11.7-0.8,17.3-2.7V39.4h-19.3v9.3h8v7c-1.6,0.4-3.3,0.5-5,0.5
			c-2.9,0.2-5.7-1-7.5-3.3c-1.8-2.2-2.7-5.4-2.7-9.6c0-4.2,1-7.5,2.9-9.8c2-2.3,5-3.6,8.1-3.5c3.7,0,7.3,0.8,10.6,2.4l3.8-9.5
			c-2.1-0.9-4.3-1.6-6.6-2c-2.6-0.5-5.3-0.8-8-0.8c-7.4,0-13.2,2-17.4,6s-6.2,9.7-6.2,16.8c0,7.4,1.9,13.1,5.7,17.1
			S148.7,66.2,155.5,66.2"/>
		<path id="Path_5210_00000115475299410696574590000003656620228633579405_" class="st6" d="M219.5,45.5c0-2.6-0.2-6.4-0.6-11.3h0.3
			l16.4,31.4h15.9V20.8h-10.8V41c0,2.7,0.2,6.4,0.4,10.9h-0.2l-16.3-31.1h-15.8v44.7h10.7V45.5z"/>
		<path id="Path_5211_00000103971886544148558170000012814655293428582539_" class="st6" d="M289.1,59.5c4.1-4.1,6.2-9.8,6.2-17.3
			c0-6.9-1.9-12.2-5.8-15.9c-3.9-3.6-9.5-5.5-16.6-5.5h-15.5v44.7h14.4C279.2,65.6,285,63.6,289.1,59.5 M269.4,30.6h3.5
			c3.3,0,5.8,1,7.4,3c1.6,1.9,2.4,5,2.4,9.1c0,4.4-0.9,7.6-2.6,9.7c-1.7,2.1-4.4,3.2-8.1,3.2h-2.7V30.6z"/>
		<path id="Path_5212_00000022521628422984820670000017248248621888944063_" class="st6" d="M311.2,66.2c3.2,0.1,6.4-0.5,9.3-1.8
			c2.5-1,4.6-2.8,6.1-5c1.4-2.2,2.2-4.7,2.1-7.3c0.1-2.7-0.7-5.3-2.2-7.5c-1.5-1.9-4.2-3.8-8.1-5.6c-2.5-1.1-5-2.3-7.4-3.8
			c-0.8-0.5-1.3-1.4-1.3-2.4c0-0.8,0.4-1.6,1.1-2c1-0.6,2.2-0.9,3.5-0.8c3,0,6.6,1,10.8,2.8l3.7-9.3c-4.4-2-9.3-3.1-14.2-3.2
			c-5.2,0-9.4,1.2-12.4,3.5c-3,2.3-4.7,5.9-4.5,9.7c0,2,0.3,3.9,1.1,5.8c0.7,1.7,1.9,3.1,3.3,4.2c2,1.6,4.2,2.9,6.6,3.9
			c3.2,1.4,5.2,2.4,5.9,2.8c0.6,0.4,1.2,0.8,1.6,1.4c0.4,0.5,0.5,1,0.5,1.6c0,1-0.5,1.8-1.2,2.4c-1.2,0.7-2.6,1.1-4,1
			c-2.3-0.1-4.6-0.4-6.8-1c-2.5-0.6-4.9-1.6-7.2-2.7v10.8c2,1,4.1,1.7,6.3,2.2C306.3,66.1,308.7,66.2,311.2,66.2"/>
		<path id="Path_5213_00000052793075143390759980000004598529881547277223_" class="st6" d="M331.4,64.9c1.3,1.1,3.1,1.6,4.8,1.5
			c1.7,0.1,3.3-0.5,4.6-1.5c1.2-1.1,1.8-2.7,1.7-4.3c0.1-1.6-0.5-3.2-1.6-4.3c-1.3-1.1-3-1.6-4.7-1.5c-1.8-0.1-3.5,0.4-4.9,1.5
			c-1.2,1.1-1.8,2.7-1.7,4.3C329.6,62.1,330.3,63.7,331.4,64.9"/>
	</g>
	<g>
		<path class="st6" d="M35.3,38.5l0.1,2.6h2.7V32h-2.7l-0.1,1.8c-0.1,0.5-0.3,0.9-0.9,0.9l-14.3,0c-0.6,0-0.8-0.4-0.9-0.9L19.2,32
			h-2.7v9.1h2.7l0.1-2.6h6.2V47h-6.2l-0.1-2.6h-2.7v9.1h2.7l0.1-1.8c0.1-0.5,0.3-0.9,0.9-0.9h14.3c0.6,0,0.8,0.4,0.9,0.9l0.1,1.8
			h2.7v-9.1h-2.7L35.3,47h-6.5v-8.5H35.3z"/>
		<path id="Path_5201" class="st6" d="M32.2,17.4h1.7c0.3,0,0.6,0.1,0.8,0.2c0.2,0.1,0.3,0.4,0.3,0.7v5.2h-6V16h-3.3v7.4h-5.6v-4.8
			c0-0.4,0.1-0.6,0.3-0.7c0.2-0.1,0.5-0.2,0.7-0.2h1.3l-0.3-3.3h-5.4v14.7h2.7l0.1-1.9h15.1c0.6,0,0.8,0.4,0.9,0.9l0.1,1.1h2.7V14
			h-5.8L32.2,17.4z"/>
		<path id="Path_5202" class="st6" d="M35.4,59.7l-0.1,2.6H19.9V60c0-0.4,0.1-0.6,0.3-0.7c0.2-0.1,0.5-0.2,0.7-0.2h1.5l-0.3-3.4
			h-5.5v16.8h5.5l0.3-3.3h-1.5c-0.6,0-1-0.3-1-0.7v-2.5h14.6c0.6,0,0.8,0.4,0.9,0.9l0.1,1.8h2.7v-9.1H35.4z"/>
	</g>
</g>
</svg>
