<svg xmlns="http://www.w3.org/2000/svg" xmlns:xlink="http://www.w3.org/1999/xlink" width="968.26" height="224.003" viewBox="0 0 968.26 224.003">
  <defs>
    <clipPath id="clip-path">
      <path id="Path_5203" data-name="Path 5203" d="M0,192.214H968.26V-28.264H0Z" transform="translate(0 28.264)" fill="#397234"/>
    </clipPath>
  </defs>
  <g id="Group_5768" data-name="Group 5768" transform="translate(0 1)">
    <g id="Group_5460" data-name="Group 5460" transform="translate(0 2.525)" clip-path="url(#clip-path)">
      <g id="Group_5458" data-name="Group 5458" transform="translate(42.611 35.619)">
        <path id="Path_5201" data-name="Path 5201" d="M34.391,7.467h4.283A4.48,4.48,0,0,1,40.7,7.92c.452.226.679.9.679,1.8v13.3H26.052V4.082H17.705v18.94H3.508V10.853c0-1.131.226-1.584.671-1.81A4.263,4.263,0,0,1,5.989,8.6H9.366L8.688.252H-5.057V37.679H1.925l.226-4.735H40.476c1.584,0,2.028.9,2.254,2.254l.226,2.7h6.763v-39H35.07Z" transform="translate(5.057 1.098)" fill="#397234"/>
      </g>
      <g id="Group_5459" data-name="Group 5459" transform="translate(42.381 142.022)">
        <path id="Path_5202" data-name="Path 5202" d="M41.668,8.65l-.226,6.537H2.22V9.555c0-1.131.218-1.584.671-1.81a4.256,4.256,0,0,1,1.8-.445H8.53L7.852-1.272H-6.127V41.562H7.852l.679-8.339H4.693c-1.576,0-2.473-.679-2.473-1.8V25.11H39.413c1.576,0,2.028.9,2.254,2.254l.226,4.509h6.763V8.65Z" transform="translate(6.127 1.272)" fill="#397234"/>
      </g>
    </g>
    <g id="Group_5461" data-name="Group 5461" transform="translate(0 -1)">
      <path id="Path_5204" data-name="Path 5204" d="M0,0V220.479H968.26V0ZM141.356,16.233H952.034V204.479H141.356Zm-124.9,0H124.889v188.02H16.459Z" fill="#397234"/>
    </g>
    <g id="Group_5462" data-name="Group 5462" transform="translate(183.731 54.153)">
      <path id="Path_5205" data-name="Path 5205" d="M65.253,99.249v-24.8H21.3V-14.594H-9.6V99.249Z" transform="translate(9.595 14.594)" fill="#397234"/>
    </g>
    <g id="Group_5463" data-name="Group 5463" transform="translate(267.145 54.146)">
      <path id="Path_5206" data-name="Path 5206" d="M58.962,77.439H21.987V56.027H56.255v-24.8H21.987V13.411H58.962v-24.8H-8.67V102.464H58.962Z" transform="translate(8.67 11.387)" fill="#397234"/>
    </g>
    <g id="Group_5465" data-name="Group 5465" transform="translate(0 2.525)" clip-path="url(#clip-path)">
      <g id="Group_5464" data-name="Group 5464" transform="translate(340.416 50.047)">
        <path id="Path_5207" data-name="Path 5207" d="M48.346,102q24.01,0,43.957-6.763V33.919H43.159V57.594h20.29V75.4a55.82,55.82,0,0,1-12.622,1.35c-8.339,0-14.657-2.707-19.166-8.339S24.9,54.661,24.9,44.068q0-16.229,7.442-25.025c4.961-5.866,11.951-8.791,20.742-8.791a60.323,60.323,0,0,1,27.053,6.085l9.7-24.12a91.132,91.132,0,0,0-16.686-5.187A96.92,96.92,0,0,0,52.855-15C33.915-15,19.265-9.812,8.672.329S-7.109,24.9-7.109,43.163c0,18.94,4.727,33.364,14.423,43.512S30.99,102,48.346,102" transform="translate(7.109 14.999)" fill="#397234"/>
      </g>
    </g>
    <g id="Group_5466" data-name="Group 5466" transform="translate(453.584 54.146)">
      <path id="Path_5209" data-name="Path 5209" d="M58.962,77.439H22.213V56.027H56.255v-24.8H22.213V13.411H58.962v-24.8H-8.67V102.464H58.962Z" transform="translate(8.67 11.387)" fill="#397234"/>
    </g>
    <g id="Group_5475" data-name="Group 5475" transform="translate(0 2.525)" clip-path="url(#clip-path)">
      <g id="Group_5467" data-name="Group 5467" transform="translate(531.585 51.626)">
        <path id="Path_5210" data-name="Path 5210" d="M23.782,54.637c0-6.537-.452-16.233-1.576-28.855h.671l41.71,80.027H104.94V-8.034H77.435v51.4c0,6.989.452,16.233,1.131,27.731h-.452L36.63-8.034H-3.5V105.809H23.782Z" transform="translate(3.497 8.034)" fill="#397234"/>
      </g>
      <g id="Group_5468" data-name="Group 5468" transform="translate(655.127 51.626)">
        <path id="Path_5211" data-name="Path 5211" d="M70.557,85.886C80.924,75.519,86.338,60.861,86.338,41.929q0-26.386-14.876-40.579C61.539-7.894,47.334-12.629,29.073-12.629H-10.375V101.214H26.374c18.932,0,33.816-4.961,44.183-15.328M20.282,12.169H29.3c8.347,0,14.657,2.481,18.714,7.66C52.069,24.791,54.1,32.685,54.1,43.052c0,11.272-2.254,19.385-6.537,24.8s-11.272,8.113-20.516,8.113H20.282Z" transform="translate(10.375 12.629)" fill="#397234"/>
      </g>
      <g id="Group_5469" data-name="Group 5469" transform="translate(757.48 50.047)">
        <path id="Path_5212" data-name="Path 5212" d="M30.46,102a59.081,59.081,0,0,0,23.675-4.509A33.932,33.932,0,0,0,69.69,84.647,33.152,33.152,0,0,0,75.1,65.933c0-7.668-1.8-13.979-5.632-19.158-3.838-4.961-10.6-9.7-20.516-14.205-10.149-4.735-16.459-7.894-18.714-9.7s-3.378-3.83-3.378-6.085a6.326,6.326,0,0,1,2.7-5.187c1.81-1.35,4.735-2.028,8.8-2.028,7.66,0,16.9,2.481,27.5,7.216l9.47-23.675A88.9,88.9,0,0,0,39.252-15c-13.3,0-23.893,2.933-31.562,8.791s-11.5,13.979-11.5,24.572A36.975,36.975,0,0,0-1.1,33.022a29.256,29.256,0,0,0,8.339,10.82c3.612,3.151,9.244,6.537,16.686,9.915,8.113,3.612,13.3,6.092,15.1,7.216a13.04,13.04,0,0,1,4.056,3.612,6.273,6.273,0,0,1,1.357,4.056,7.481,7.481,0,0,1-3.159,6.085c-2.028,1.576-5.406,2.481-10.141,2.481a73.281,73.281,0,0,1-17.364-2.481A89.36,89.36,0,0,1-4.479,67.735V95.24a71.508,71.508,0,0,0,16,5.632A141.638,141.638,0,0,0,30.46,102" transform="translate(4.479 14.999)" fill="#397234"/>
      </g>
      <g id="Group_5470" data-name="Group 5470" transform="translate(839.311 137.746)">
        <path id="Path_5213" data-name="Path 5213" d="M3.931,22.6c2.933,2.707,6.989,3.83,12.177,3.83,4.953,0,8.791-1.35,11.717-3.83,2.933-2.707,4.283-6.311,4.283-11.046S30.757,2.988,28.051.507c-2.707-2.707-6.763-3.83-11.943-3.83-5.414,0-9.47,1.35-12.4,3.83C.772,3.214-.578,6.818-.578,11.553-.352,16.288,1,19.892,3.931,22.6" transform="translate(0.578 3.323)" fill="#397234"/>
      </g>
      <g id="Group_5471" data-name="Group 5471" transform="translate(69.66 113.169)">
        <path id="Path_5214" data-name="Path 5214" d="M17.886,0,17.66,6.537H-2.63v9.922H15.631c1.576,0,2.028.9,2.254,2.254l.226,4.509h6.763V0Z" transform="translate(2.63)" fill="#397234"/>
      </g>
      <g id="Group_5472" data-name="Group 5472" transform="translate(42.156 113.169)">
        <path id="Path_5215" data-name="Path 5215" d="M6.093,0,6.32,6.537h20.29v9.922H8.348c-1.576,0-2.028.9-2.254,2.254l-.226,4.509H-.9V0Z" transform="translate(0.896)" fill="#397234"/>
      </g>
      <g id="Group_5473" data-name="Group 5473" transform="translate(69.66 81.38)">
        <path id="Path_5216" data-name="Path 5216" d="M17.886,20.246l-.226-6.537H-2.63V3.786H15.631c1.576,0,2.028-.9,2.254-2.254l.226-4.509h6.763V20.246Z" transform="translate(2.63 2.977)" fill="#397234"/>
      </g>
      <g id="Group_5474" data-name="Group 5474" transform="translate(42.156 81.38)">
        <path id="Path_5217" data-name="Path 5217" d="M6.093,20.246l.226-6.537h20.29V3.786H8.348c-1.576,0-2.028-.9-2.254-2.254L5.867-2.977H-.9V20.246Z" transform="translate(0.896 2.977)" fill="#397234"/>
      </g>
    </g>
    <path id="Path_5219" data-name="Path 5219" d="M8.352-16.5h8.339V16.409H8.352Z" transform="translate(56.799 110.778)" fill="#397234"/>
  </g>
</svg>
