<?xml version="1.0" encoding="utf-8"?>
<!-- Generator: Adobe Illustrator 27.3.0, SVG Export Plug-In . SVG Version: 6.00 Build 0)  -->
<svg version="1.1" id="Layer_1" xmlns="http://www.w3.org/2000/svg" xmlns:xlink="http://www.w3.org/1999/xlink" x="0px" y="0px"
	 viewBox="0 0 21.8 25.2" style="enable-background:new 0 0 21.8 25.2;" xml:space="preserve">
<style type="text/css">
	.st0{fill:#FFFFFF;}
	.st1{opacity:0.5;fill:#FFFFFF;}
	.st2{opacity:0.5;fill:#2D2D2D;}
	.st3{opacity:0.6;enable-background:new    ;}
	.st4{opacity:0.5;fill:#E5E5E5;enable-background:new    ;}
	.st5{fill:#2C2C2C;}
	.st6{fill:#397234;}
	.st7{fill:#E5E5E5;}
	.st8{clip-path:url(#SVGID_00000072972261957980209260000008898615245928647098_);}
	.st9{fill:#2D2D2D;}
	.st10{opacity:0.5;}
	.st11{fill:#A5A5A5;}
	.st12{enable-background:new    ;}
	.st13{clip-path:url(#SVGID_00000150067476339210966640000009650654429450621586_);}
</style>
<g>
	<path id="Path_6046_00000007419834804900958360000004941011556298095282_" class="st0" d="M15.7,10c-1.5-0.8-3.2-1.2-4.8-1.1
		C9.2,8.8,7.5,9.2,6,10c-0.9,0.5-1.7,1.1-2.4,1.8c-1.5,1.5-2.3,3.6-2.3,5.7c0,0.1,0,0.3,0,0.4c0,0.1,0.1,0.3,0.2,0.4
		c0.2,0.2,0.3,0.5,0.1,0.8c-0.1,0.1-0.1,0.3,0,0.4c0.4,1.4,1.1,2.7,2.1,3.7c1.4,1.6,4.4,2,7.2,2H11c2.8,0,5.8-0.4,7.2-2
		c1-1,1.7-2.3,2.1-3.7c0-0.1,0-0.3,0-0.4c-0.1-0.3-0.1-0.6,0.1-0.8c0.1-0.1,0.2-0.2,0.2-0.4c0-0.1,0-0.3,0-0.4
		c0-2.1-0.8-4.2-2.3-5.7C17.4,11.1,16.6,10.5,15.7,10"/>
	<path id="Path_6047_00000083795080615484394510000013658534943027606682_" class="st0" d="M17.1,0H4.7C2.2-0.1,0.1,1.8,0,4.3
		c0,0.5,0.1,1.1,0.3,1.5C0.9,7.2,1.6,8.6,2.4,10C3.2,9.3,4.1,8.7,5,8.2C4.4,7.1,3.8,6,3.3,4.8C3,4.1,3.3,3.3,4,3c0,0,0.1,0,0.1,0
		c0.2-0.1,0.4-0.1,0.5-0.1h12.4c0.2,0,0.4,0,0.5,0.1c0,0,0.1,0,0.1,0c0.7,0.3,1,1.1,0.8,1.8C18,6,17.4,7.1,16.8,8.2
		c0.9,0.5,1.8,1,2.6,1.7c0.8-1.3,1.5-2.7,2.1-4.2c0.2-0.5,0.3-1,0.3-1.5C21.6,1.8,19.6-0.1,17.1,0"/>
</g>
</svg>
