<?xml version="1.0" encoding="utf-8"?>
<!-- Generator: Adobe Illustrator 27.3.0, SVG Export Plug-In . SVG Version: 6.00 Build 0)  -->
<svg version="1.1" id="Layer_1" xmlns="http://www.w3.org/2000/svg" xmlns:xlink="http://www.w3.org/1999/xlink" x="0px" y="0px"
	 viewBox="0 0 14 14" style="enable-background:new 0 0 14 14;" xml:space="preserve">
<style type="text/css">
	.st0{fill:#FFFFFF;}
	.st1{opacity:0.5;fill:#FFFFFF;}
	.st2{opacity:0.5;fill:#2D2D2D;}
	.st3{opacity:0.6;enable-background:new    ;}
	.st4{opacity:0.5;fill:#E5E5E5;enable-background:new    ;}
	.st5{fill:#2C2C2C;}
	.st6{fill:#397234;}
	.st7{fill:#E5E5E5;}
	.st8{clip-path:url(#SVGID_00000121261693401693212600000001206767974825787311_);}
	.st9{fill:#2D2D2D;}
	.st10{opacity:0.5;}
	.st11{fill:#A5A5A5;}
	.st12{enable-background:new    ;}
	.st13{clip-path:url(#SVGID_00000111897930792167813220000014708353807927289230_);}
</style>
<g>
	<g id="Group_6944" transform="translate(-1975.476 10506.524)">
		<circle id="Ellipse_249" class="st6" cx="1982.5" cy="-10499.5" r="7"/>
	</g>
	<g class="st12">
		<path class="st0" d="M7.4,9c0.1,0.1,0.2,0.3,0.2,0.5c0,0.2-0.1,0.3-0.2,0.5S7.2,10.2,7,10.2c-0.2,0-0.3-0.1-0.4-0.2
			C6.4,9.8,6.4,9.7,6.4,9.5S6.4,9.2,6.6,9C6.7,8.9,6.8,8.9,7,8.9C7.2,8.9,7.3,8.9,7.4,9z M6.4,3.8h1.1v1.6L7.4,8H6.6L6.4,5.4V3.8z"
			/>
	</g>
</g>
</svg>
