<svg xmlns="http://www.w3.org/2000/svg" xmlns:xlink="http://www.w3.org/1999/xlink" width="72.932" height="315.251" viewBox="0 0 72.932 315.251">
  <defs>
    <clipPath id="clip-path">
      <path id="Path_5203" data-name="Path 5203" d="M0,43.521H315.251V-28.264H0Z" transform="translate(0 28.264)" fill="#397234"/>
    </clipPath>
  </defs>
  <g id="Group_6698" data-name="Group 6698" transform="translate(72.932 0) rotate(90)">
    <g id="Group_5460" data-name="Group 5460" transform="translate(0 1.147)" clip-path="url(#clip-path)">
      <g id="Group_5458" data-name="Group 5458" transform="translate(13.874 11.597)">
        <path id="Path_5201" data-name="Path 5201" d="M7.787,1.691H9.181a1.459,1.459,0,0,1,.66.147c.147.074.221.292.221.587v4.33H5.072V.588H2.354V6.755H-2.268V2.793c0-.368.074-.516.218-.589a1.388,1.388,0,0,1,.589-.145h1.1L-.582-.659H-5.057V11.527h2.273l.074-1.542H9.768c.516,0,.66.292.734.734l.074.879h2.2V-1.1H8.008Z" transform="translate(5.057 1.098)" fill="#397234"/>
      </g>
      <g id="Group_5459" data-name="Group 5459" transform="translate(13.799 46.24)">
        <path id="Path_5202" data-name="Path 5202" d="M9.434,1.959,9.361,4.087H-3.409V2.253c0-.368.071-.516.218-.589A1.386,1.386,0,0,1-2.6,1.519h1.25l-.221-2.791H-6.127V12.674h4.551l.221-2.715H-2.6c-.513,0-.805-.221-.805-.587V7.318H8.7c.513,0,.66.292.734.734L9.508,9.52h2.2V1.959Z" transform="translate(6.127 1.272)" fill="#397234"/>
      </g>
    </g>
    <g id="Group_5461" data-name="Group 5461" transform="translate(0 0)">
      <path id="Path_5204" data-name="Path 5204" d="M0,0V71.785H315.251V0ZM46.024,5.285H309.969v61.29H46.024Zm-40.665,0h35.3V66.5H5.359Z" fill="#397234"/>
    </g>
    <g id="Group_5462" data-name="Group 5462" transform="translate(59.82 17.957)">
      <path id="Path_5205" data-name="Path 5205" d="M14.774,22.472V14.4H.463V-14.594H-9.6V22.472Z" transform="translate(9.595 14.594)" fill="#397234"/>
    </g>
    <g id="Group_5463" data-name="Group 5463" transform="translate(86.979 17.955)">
      <path id="Path_5206" data-name="Path 5206" d="M13.35,17.534H1.311V10.562H12.469V2.488H1.311v-5.8H13.35v-8.074H-8.67V25.681H13.35Z" transform="translate(8.67 11.387)" fill="#397234"/>
    </g>
    <g id="Group_5465" data-name="Group 5465" transform="translate(0 1.147)" clip-path="url(#clip-path)">
      <g id="Group_5464" data-name="Group 5464" transform="translate(110.835 16.295)">
        <path id="Path_5207" data-name="Path 5207" d="M10.946,23.1a44.345,44.345,0,0,0,14.312-2.2V.928h-16V8.636h6.606v5.8a18.174,18.174,0,0,1-4.109.439,7.48,7.48,0,0,1-6.24-2.715q-2.2-2.754-2.2-7.927,0-5.284,2.423-8.148a8.4,8.4,0,0,1,6.753-2.862A19.64,19.64,0,0,1,21.3-4.8l3.157-7.853a29.671,29.671,0,0,0-5.433-1.689A31.556,31.556,0,0,0,12.414-15C6.248-15,1.478-13.31-1.971-10.008s-5.138,8-5.138,13.946c0,6.167,1.539,10.863,4.7,14.167S5.3,23.1,10.946,23.1" transform="translate(7.109 14.999)" fill="#397234"/>
      </g>
    </g>
    <g id="Group_5466" data-name="Group 5466" transform="translate(147.68 17.955)">
      <path id="Path_5209" data-name="Path 5209" d="M13.35,17.534H1.385V10.562H12.469V2.488H1.385v-5.8H13.35v-8.074H-8.67V25.681H13.35Z" transform="translate(8.67 11.387)" fill="#397234"/>
    </g>
    <g id="Group_5475" data-name="Group 5475" transform="translate(0 1.147)" clip-path="url(#clip-path)">
      <g id="Group_5467" data-name="Group 5467" transform="translate(173.077 16.809)">
        <path id="Path_5210" data-name="Path 5210" d="M5.385,12.371c0-2.128-.147-5.285-.513-9.395H5.09L18.67,29.032H31.809V-8.034H22.853V8.7c0,2.276.147,5.285.368,9.029h-.147L9.568-8.034H-3.5V29.032H5.385Z" transform="translate(3.497 8.034)" fill="#397234"/>
      </g>
      <g id="Group_5468" data-name="Group 5468" transform="translate(213.3 16.809)">
        <path id="Path_5211" data-name="Path 5211" d="M15.975,19.446c3.375-3.375,5.138-8.148,5.138-14.312q0-8.591-4.843-13.212c-3.231-3.01-7.856-4.551-13.8-4.551H-10.375V24.437H1.59c6.164,0,11.01-1.615,14.385-4.991m-16.369-24H2.542c2.718,0,4.772.808,6.093,2.494C9.956-.446,10.616,2.125,10.616,5.5c0,3.67-.734,6.311-2.128,8.074s-3.67,2.641-6.68,2.641h-2.2Z" transform="translate(10.375 12.629)" fill="#397234"/>
      </g>
      <g id="Group_5469" data-name="Group 5469" transform="translate(246.625 16.295)">
        <path id="Path_5212" data-name="Path 5212" d="M6.9,23.1A19.236,19.236,0,0,0,14.6,21.627a11.048,11.048,0,0,0,5.064-4.183,10.794,10.794,0,0,0,1.76-6.093A10.133,10.133,0,0,0,19.6,5.114C18.346,3.5,16.144,1.957,12.916.489A42.845,42.845,0,0,1,6.823-2.668a2.521,2.521,0,0,1-1.1-1.981A2.06,2.06,0,0,1,6.6-6.338,4.855,4.855,0,0,1,9.467-7,22.848,22.848,0,0,1,18.42-4.649L21.5-12.358A28.943,28.943,0,0,0,9.759-15c-4.33,0-7.779.955-10.276,2.862a9.469,9.469,0,0,0-3.744,8A12.039,12.039,0,0,0-3.379.636,9.525,9.525,0,0,0-.664,4.159,22.911,22.911,0,0,0,4.768,7.387C7.41,8.563,9.1,9.37,9.685,9.736a4.246,4.246,0,0,1,1.321,1.176,2.042,2.042,0,0,1,.442,1.321,2.436,2.436,0,0,1-1.029,1.981,5.438,5.438,0,0,1-3.3.808,23.859,23.859,0,0,1-5.654-.808,29.094,29.094,0,0,1-5.943-2.276v8.955A23.282,23.282,0,0,0,.73,22.727,46.115,46.115,0,0,0,6.9,23.1" transform="translate(4.479 14.999)" fill="#397234"/>
      </g>
      <g id="Group_5470" data-name="Group 5470" transform="translate(273.268 44.848)">
        <path id="Path_5213" data-name="Path 5213" d="M.89,5.117A5.6,5.6,0,0,0,4.855,6.364,5.676,5.676,0,0,0,8.669,5.117a4.593,4.593,0,0,0,1.394-3.6,4.708,4.708,0,0,0-1.321-3.6A5.286,5.286,0,0,0,4.855-3.323,6.035,6.035,0,0,0,.816-2.076,4.593,4.593,0,0,0-.578,1.52,4.908,4.908,0,0,0,.89,5.117" transform="translate(0.578 3.323)" fill="#397234"/>
      </g>
      <g id="Group_5471" data-name="Group 5471" transform="translate(22.68 36.846)">
        <path id="Path_5214" data-name="Path 5214" d="M4.05,0,3.976,2.128H-2.63V5.359H3.316c.513,0,.66.292.734.734l.074,1.468h2.2V0Z" transform="translate(2.63)" fill="#397234"/>
      </g>
      <g id="Group_5472" data-name="Group 5472" transform="translate(13.726 36.846)">
        <path id="Path_5215" data-name="Path 5215" d="M1.38,0l.074,2.128H8.059V5.359H2.114c-.513,0-.66.292-.734.734L1.306,7.561H-.9V0Z" transform="translate(0.896)" fill="#397234"/>
      </g>
      <g id="Group_5473" data-name="Group 5473" transform="translate(22.68 26.496)">
        <path id="Path_5216" data-name="Path 5216" d="M4.05,4.584,3.976,2.456H-2.63V-.775H3.316c.513,0,.66-.292.734-.734l.074-1.468h2.2V4.584Z" transform="translate(2.63 2.977)" fill="#397234"/>
      </g>
      <g id="Group_5474" data-name="Group 5474" transform="translate(13.726 26.496)">
        <path id="Path_5217" data-name="Path 5217" d="M1.38,4.584l.074-2.128H8.059V-.775H2.114c-.513,0-.66-.292-.734-.734L1.306-2.977H-.9V4.584Z" transform="translate(0.896 2.977)" fill="#397234"/>
      </g>
    </g>
    <path id="Path_5219" data-name="Path 5219" d="M8.352-16.5h2.715V-5.787H8.352Z" transform="translate(12.86 47.522)" fill="#397234"/>
  </g>
</svg>
