<?xml version="1.0" encoding="utf-8"?>
<!-- Generator: Adobe Illustrator 27.3.0, SVG Export Plug-In . SVG Version: 6.00 Build 0)  -->
<svg version="1.1" id="Layer_1" xmlns="http://www.w3.org/2000/svg" xmlns:xlink="http://www.w3.org/1999/xlink" x="0px" y="0px"
	 viewBox="0 0 7.7 7.7" style="enable-background:new 0 0 7.7 7.7;" xml:space="preserve">
<style type="text/css">
	.st0{fill:#FFFFFF;}
	.st1{opacity:0.5;fill:#FFFFFF;}
	.st2{opacity:0.5;fill:#2D2D2D;}
	.st3{opacity:0.6;enable-background:new    ;}
	.st4{opacity:0.5;fill:#E5E5E5;enable-background:new    ;}
	.st5{fill:#2C2C2C;}
	.st6{fill:#397234;}
	.st7{fill:#E5E5E5;}
	.st8{clip-path:url(#SVGID_00000168095407886556914060000010503479267608047253_);}
	.st9{fill:#2D2D2D;}
	.st10{opacity:0.5;}
	.st11{fill:#A5A5A5;}
	.st12{enable-background:new    ;}
	.st13{clip-path:url(#SVGID_00000026145857692270497430000018215473580098898832_);}
</style>
<g id="Group_6298" transform="translate(274.813 13755.945)">
	<path id="Path_294" class="st0" d="M-270.9-13748.9L-270.9-13748.9c0.3,0,0.6,0,1,0c0.3,0,0.6,0,1-0.1c0.6-0.1,1-0.5,1.1-1
		c0.1-0.3,0.1-0.6,0.1-0.9c0-0.7,0-1.4,0-2.1c0-0.3,0-0.6-0.1-1c-0.1-0.6-0.5-1.1-1.1-1.2c-0.3-0.1-0.6-0.1-0.8-0.1
		c-0.7,0-1.4,0-2.1,0c-0.3,0-0.6,0-1,0.1c-0.6,0.1-1,0.5-1.1,1c-0.1,0.3-0.1,0.6-0.1,0.9c0,0.7,0,1.4,0,2.1c0,0.3,0,0.6,0.1,1
		c0.1,0.5,0.4,1,0.9,1.1c0.3,0.1,0.6,0.1,1,0.1C-271.8-13748.9-271.3-13748.9-270.9-13748.9 M-267.1-13752.1c0,0.4,0,0.9,0,1.3
		c0,0.4-0.1,0.8-0.2,1.2c-0.2,0.6-0.7,1-1.4,1.2c-0.4,0.1-0.8,0.1-1.2,0.1c-0.8,0-1.6,0-2.4,0c-0.4,0-0.8-0.1-1.2-0.2
		c-0.6-0.2-1-0.7-1.2-1.3c-0.1-0.4-0.1-0.8-0.1-1.2c0-0.8,0-1.7,0-2.5c0-0.4,0.1-0.8,0.2-1.2c0.2-0.6,0.7-1,1.4-1.2
		c0.4-0.1,0.8-0.1,1.2-0.1c0.8,0,1.6,0,2.4,0c0.4,0,0.8,0.1,1.2,0.2c0.6,0.2,1,0.7,1.2,1.3c0.1,0.4,0.1,0.8,0.1,1.3
		C-267.1-13752.8-267.1-13752.4-267.1-13752.1L-267.1-13752.1"/>
	<path id="Path_295" class="st0" d="M-269.7-13752.1c0-0.7-0.6-1.3-1.3-1.3s-1.3,0.6-1.3,1.3c0,0.7,0.6,1.3,1.3,1.3c0,0,0,0,0,0
		C-270.2-13750.8-269.7-13751.4-269.7-13752.1 M-270.9-13750.1c-1.1,0-2-0.9-2-2c0-1.1,0.9-2,2-2c1.1,0,2,0.9,2,2c0,0,0,0,0,0
		C-268.9-13751-269.8-13750.1-270.9-13750.1"/>
	<path id="Path_296" class="st0" d="M-268.4-13754.1c0,0.3-0.2,0.5-0.5,0.5c-0.3,0-0.5-0.2-0.5-0.5c0-0.3,0.2-0.5,0.5-0.5
		c0,0,0,0,0,0C-268.6-13754.6-268.4-13754.4-268.4-13754.1C-268.4-13754.1-268.4-13754.1-268.4-13754.1"/>
</g>
</svg>
