<?xml version="1.0" encoding="utf-8"?>
<!-- Generator: Adobe Illustrator 27.3.0, SVG Export Plug-In . SVG Version: 6.00 Build 0)  -->
<svg version="1.1" id="Layer_1" xmlns="http://www.w3.org/2000/svg" xmlns:xlink="http://www.w3.org/1999/xlink" x="0px" y="0px"
	 viewBox="0 0 25.3 19.7" style="enable-background:new 0 0 25.3 19.7;" xml:space="preserve">
<style type="text/css">
	.st0{fill:#FFFFFF;}
	.st1{opacity:0.5;fill:#FFFFFF;}
	.st2{opacity:0.5;fill:#2D2D2D;}
	.st3{opacity:0.6;enable-background:new    ;}
	.st4{opacity:0.5;fill:#E5E5E5;enable-background:new    ;}
	.st5{fill:#2C2C2C;}
	.st6{fill:#397234;}
	.st7{fill:#E5E5E5;}
	.st8{clip-path:url(#SVGID_00000149360267319846893780000000556120407370912393_);}
	.st9{fill:#2D2D2D;}
	.st10{opacity:0.5;}
	.st11{fill:#A5A5A5;}
	.st12{enable-background:new    ;}
	.st13{clip-path:url(#SVGID_00000172434641608096803350000012292035493409541762_);}
</style>
<g id="Group_6846" transform="translate(0 0)">
	<g>
		<defs>
			<rect id="SVGID_00000047044071136388421580000014330385819763896474_" x="0" width="25.3" height="19.7"/>
		</defs>
		<clipPath id="SVGID_00000101072777401059303540000010409797713895330216_">
			<use xlink:href="#SVGID_00000047044071136388421580000014330385819763896474_"  style="overflow:visible;"/>
		</clipPath>
		
			<g id="Group_6846-2" transform="translate(0 0)" style="clip-path:url(#SVGID_00000101072777401059303540000010409797713895330216_);">
			<path id="Path_6120" class="st0" d="M12.5,0.2l-6,5.2H0.9C0.4,5.4,0,5.8,0,6.4c0,0,0,0,0,0v7c0,0.5,0.4,0.9,0.9,0.9c0,0,0,0,0,0
				h5.6l6,5.2c0.4,0.3,1,0.3,1.3-0.1C14,19.2,14,19,14,18.8V0.9C14,0.4,13.6,0,13.1,0C12.9,0,12.7,0.1,12.5,0.2"/>
			<path id="Path_6121" class="st0" d="M16.3,14.7c-0.5,0-0.9-0.4-0.9-0.9c0-0.2,0.1-0.4,0.2-0.5c1.4-2.1,1.4-4.7,0-6.8
				c-0.3-0.4-0.2-1,0.2-1.3c0.4-0.3,1-0.2,1.3,0.2c1.8,2.7,1.8,6.2,0,8.8C16.9,14.5,16.6,14.7,16.3,14.7"/>
			<path id="Path_6122" class="st0" d="M18.9,17.3c-0.5,0-0.9-0.4-0.9-0.9c0-0.2,0.1-0.4,0.2-0.6c2.7-3.5,2.7-8.4,0-11.9
				c-0.3-0.4-0.2-1,0.2-1.3c0.4-0.3,0.9-0.2,1.3,0.2c3.2,4.1,3.2,9.9,0,14.1C19.4,17.1,19.1,17.3,18.9,17.3"/>
			<path id="Path_6123" class="st0" d="M21.2,19.6c-0.5,0-0.9-0.4-0.9-0.9c0-0.2,0.1-0.4,0.2-0.6c4-4.8,4-11.8,0-16.6
				c-0.3-0.4-0.2-1,0.2-1.3c0.4-0.3,0.9-0.2,1.2,0.1c4.5,5.5,4.5,13.4,0,18.9C21.8,19.5,21.5,19.6,21.2,19.6"/>
		</g>
	</g>
</g>
</svg>
