<?xml version="1.0" encoding="utf-8"?>
<!-- Generator: Adobe Illustrator 27.3.0, SVG Export Plug-In . SVG Version: 6.00 Build 0)  -->
<svg version="1.1" id="Layer_1" xmlns="http://www.w3.org/2000/svg" xmlns:xlink="http://www.w3.org/1999/xlink" x="0px" y="0px"
	 viewBox="0 0 49.8 47.5" style="enable-background:new 0 0 49.8 47.5;" xml:space="preserve">
<style type="text/css">
	.st0{fill:#397234;}
	.st1{fill:#FFFFFF;}
</style>
<g id="Group_7013_00000125589095436418293250000016489558576489613748_" transform="translate(0 0)">
	<path id="Path_6390_00000082346351184461604810000001218143447164988307_" class="st0" d="M25.9,0.6l6.8,13.8
		c0.2,0.3,0.5,0.6,0.9,0.6l15.2,2.2c0.6,0.1,1.1,0.7,1,1.3c0,0.3-0.2,0.5-0.3,0.7L38.5,30c-0.3,0.3-0.4,0.6-0.3,1l2.6,15.2
		c0.1,0.6-0.3,1.2-0.9,1.3c-0.2,0-0.5,0-0.7-0.1l-13.6-7.2c-0.3-0.2-0.7-0.2-1.1,0l-13.6,7.2c-0.6,0.3-1.3,0.1-1.6-0.5
		c-0.1-0.2-0.2-0.5-0.1-0.7L11.7,31c0.1-0.4-0.1-0.8-0.3-1l-11-10.7c-0.5-0.4-0.5-1.2,0-1.6c0.2-0.2,0.4-0.3,0.7-0.3l15.2-2.2
		c0.4-0.1,0.7-0.3,0.9-0.6l6.8-13.8c0.3-0.6,1-0.8,1.5-0.5C25.6,0.2,25.8,0.4,25.9,0.6"/>
</g>
</svg>
