<?xml version="1.0" encoding="utf-8"?>
<!-- Generator: Adobe Illustrator 27.3.0, SVG Export Plug-In . SVG Version: 6.00 Build 0)  -->
<svg version="1.1" id="Layer_1" xmlns="http://www.w3.org/2000/svg" xmlns:xlink="http://www.w3.org/1999/xlink" x="0px" y="0px"
	 viewBox="0 0 55.1 55.1" style="enable-background:new 0 0 55.1 55.1;" xml:space="preserve">
<style type="text/css">
	.st0{fill:#397234;}
	.st1{fill:#FFFFFF;}
</style>
<g id="Group_7004-2_00000030457751954283974030000002372172144146966666_" transform="translate(0 0)">
	<path id="Path_6383_00000067952279138919588760000013944338418582274201_" class="st0" d="M27.5,0C12.3,0,0,12.3,0,27.6
		c0,10.9,6.5,20.9,16.5,25.2l0.4-8.9c0-0.5-0.4-1-1-1c0,0,0,0,0,0h-0.5c-2,0-3.6-1.6-3.6-3.6c0,0,0-0.1,0-0.1l1.1-28.7h1.4
		l-0.1,22.9h1.9l0.5-22.9h1.4v22.9h1.8V10.6h1.4l0.5,22.9h1.9l-0.1-22.9H25l1.1,28.7c0.1,2-1.5,3.6-3.4,3.7c0,0-0.1,0-0.1,0h-0.5
		c-0.5,0-1,0.4-1,1c0,0,0,0,0,0l0.4,10.5c5.1,1.2,10.5,0.8,15.4-1l0.1-1.7c0-5.8-4.2-8.6-4.2-22.9c0-13,3-19.8,5.8-21.6
		c0.8-0.5,1.8-0.3,2.4,0.4c0.2,0.3,0.3,0.5,0.3,0.8v39.3l0.2,3.6C54.5,43.8,59,26.9,51.4,13.8C46.5,5.2,37.4,0,27.5,0"/>
</g>
</svg>
