<?xml version="1.0" encoding="utf-8"?>
<!-- Generator: Adobe Illustrator 27.3.0, SVG Export Plug-In . SVG Version: 6.00 Build 0)  -->
<svg version="1.1" id="Layer_1" xmlns="http://www.w3.org/2000/svg" xmlns:xlink="http://www.w3.org/1999/xlink" x="0px" y="0px"
	 viewBox="0 0 35.6 6.4" style="enable-background:new 0 0 35.6 6.4;" xml:space="preserve">
<style type="text/css">
	.st0{fill:#FFFFFF;}
	.st1{opacity:0.5;fill:#FFFFFF;}
	.st2{opacity:0.5;fill:#2D2D2D;}
	.st3{opacity:0.6;enable-background:new    ;}
	.st4{opacity:0.5;fill:#E5E5E5;enable-background:new    ;}
	.st5{fill:#2C2C2C;}
	.st6{fill:#397234;}
	.st7{fill:#E5E5E5;}
	.st8{clip-path:url(#SVGID_00000158707314815539434700000004157542485281278856_);}
	.st9{fill:#2D2D2D;}
	.st10{opacity:0.5;}
	.st11{fill:#A5A5A5;}
	.st12{enable-background:new    ;}
	.st13{clip-path:url(#SVGID_00000037657954375270072200000004009289862347868320_);}
</style>
<g id="Group_6299" transform="translate(173.637 13770.652)">
	<path id="Path_5130" class="st0" d="M-169.5-13770.7v3.8l-2.3-3.8h-1.8l4.1,6.4h1.5v-6.4H-169.5z"/>
	<path id="Path_5131" class="st0" d="M-160.1-13770.7v1.3h1.7v5.1h1.5v-5.1h1.7v-1.3H-160.1z"/>
	<path id="Path_5132" class="st0" d="M-153.3-13770.7v5.1h-1.7v1.3h4.9v-1.3h-1.7v-5.1H-153.3z"/>
	<rect id="Rectangle_1225" x="-173.6" y="-13765.8" class="st0" width="1.5" height="1.5"/>
	<path id="Path_5133" class="st0" d="M-164.6-13770.7l-1.9,6.4h1.6l1.4-5.2l1.4,5.2h1.6l-1.9-6.4H-164.6z"/>
	<path id="Path_5134" class="st0" d="M-145.4-13770.7l-1.4,5.2l-1.4-5.2h-1.6l1.9,6.4h2.1l1.9-6.4H-145.4z"/>
	<path id="Path_5135" class="st0" d="M-141-13765.6h-1.5v1.3h4.4v-1.3H-141z"/>
	<path id="Path_5136" class="st0" d="M-142.5-13768.2v1.3h1.1v0h1.7v-1.3L-142.5-13768.2L-142.5-13768.2z"/>
	<path id="Path_5137" class="st0" d="M-142.5-13770.7v1.3h4.4v-1.3H-142.5z"/>
</g>
</svg>
